<?xml version="1.0" standalone="no"?>
<!DOCTYPE svg PUBLIC "-//W3C//DTD SVG 20010904//EN"
 "http://www.w3.org/TR/2001/REC-SVG-20010904/DTD/svg10.dtd">
<svg version="1.0" xmlns="http://www.w3.org/2000/svg"
 width="500.000000pt" height="350.000000pt" viewBox="0 0 500.000000 350.000000"
 preserveAspectRatio="xMidYMid meet">

<g transform="translate(0.000000,350.000000) scale(0.100000,-0.100000)"
fill="#000000" stroke="none">
<path d="M4733 3048 c-4 -7 -11 -71 -14 -143 -5 -103 -12 -147 -33 -210 -38
-112 -129 -298 -218 -445 -109 -181 -161 -282 -203 -395 -66 -177 -58 -306 20
-355 109 -67 286 38 374 220 30 62 36 86 36 138 0 61 -2 65 -37 98 -45 41 -91
45 -132 13 -37 -29 -31 -61 14 -75 19 -6 36 -19 38 -28 7 -36 -102 -208 -152
-241 -56 -37 -72 16 -36 120 27 77 66 148 196 352 239 372 337 652 294 832
-21 89 -116 166 -147 119z"/>
<path d="M3843 2958 c-70 -76 -462 -936 -572 -1256 l-56 -163 -58 -24 c-125
-50 -190 -134 -161 -209 11 -28 65 -19 138 24 82 48 128 64 268 90 59 11 132
31 163 44 106 48 205 169 205 254 0 77 -56 152 -114 152 -47 0 -72 -29 -87
-99 -22 -104 -64 -156 -151 -187 -22 -8 -44 -14 -49 -14 -16 0 74 237 247 647
272 643 284 673 284 721 0 34 -3 42 -18 42 -10 0 -28 -10 -39 -22z"/>
<path d="M1119 2280 c-64 -18 -133 -103 -270 -328 l-44 -73 -5 81 c-5 65 -10
84 -28 103 -28 28 -101 29 -152 2 -92 -48 -260 -273 -370 -499 -82 -166 -101
-266 -52 -266 40 0 73 44 157 210 48 94 107 198 132 231 66 90 123 149 145
149 71 0 30 -220 -98 -522 -134 -316 -164 -419 -164 -573 0 -99 11 -131 51
-154 22 -12 32 -12 56 -2 48 20 71 74 94 222 57 378 111 530 331 936 102 188
149 255 167 237 17 -16 -11 -139 -70 -307 -234 -660 -281 -829 -253 -901 9
-22 56 -20 87 4 40 32 71 108 137 345 115 410 131 449 235 590 59 81 156 188
162 181 3 -2 -24 -67 -60 -143 -200 -428 -277 -648 -277 -791 0 -65 3 -76 26
-98 19 -20 31 -24 52 -20 57 14 75 49 141 287 92 327 136 454 285 831 67 170
75 205 54 226 -48 48 -183 -51 -361 -266 -15 -19 -27 -31 -27 -27 0 4 11 56
25 116 21 89 24 117 15 148 -16 60 -63 88 -121 71z"/>
<path d="M2382 2186 c-35 -19 -62 -66 -62 -109 0 -124 139 -177 226 -86 25 26
29 38 29 85 0 51 -3 58 -37 90 -32 29 -45 34 -85 34 -27 -1 -58 -6 -71 -14z"/>
<path d="M4022 2019 c-58 -29 -103 -84 -161 -198 -103 -203 -121 -277 -78
-327 20 -23 28 -26 59 -20 21 4 55 24 82 47 25 22 46 36 46 29 0 -6 11 -22 25
-35 67 -68 195 10 195 118 0 49 -20 71 -59 65 -28 -4 -31 -2 -25 16 9 29 30
68 65 124 53 84 59 162 11 162 -9 0 -30 9 -47 20 -38 25 -60 25 -113 -1z m23
-195 c-30 -75 -50 -110 -62 -112 -10 -2 -31 -16 -47 -30 l-29 -27 7 35 c8 47
64 157 100 198 26 29 65 55 73 48 2 -2 -17 -52 -42 -112z"/>
<path d="M2665 1922 c-64 -46 -129 -126 -172 -209 -53 -103 -66 -156 -61 -247
3 -69 6 -79 35 -107 24 -25 42 -33 81 -37 100 -9 286 73 344 152 58 80 24 166
-66 166 -48 0 -82 -20 -130 -76 -46 -54 -99 -82 -120 -65 -21 17 -20 50 3 136
25 99 53 156 95 198 42 42 61 46 69 16 9 -32 59 -22 71 14 17 47 -9 81 -65 85
-36 2 -52 -2 -84 -26z"/>
<path d="M2104 1869 c-46 -13 -91 -64 -103 -118 -9 -35 -8 -71 2 -150 26 -200
-9 -254 -175 -268 -58 -5 -72 -10 -85 -30 -19 -29 -4 -74 35 -99 35 -23 151
-15 208 14 52 26 108 89 124 137 15 46 8 191 -14 285 -17 73 -9 123 25 140 16
9 19 6 25 -17 10 -47 13 -53 29 -59 28 -11 62 5 75 36 34 81 -52 157 -146 129z"/>
<path d="M2377 1873 c-3 -4 -19 -51 -36 -103 -18 -52 -53 -131 -78 -175 -95
-165 -105 -187 -100 -233 9 -87 65 -107 127 -44 32 31 45 58 79 167 75 233 88
385 34 393 -11 2 -23 0 -26 -5z"/>
<path d="M1816 1749 c-51 -45 -116 -146 -186 -293 -62 -128 -129 -216 -164
-216 -25 0 8 90 80 220 83 149 86 210 11 210 -43 0 -77 -43 -135 -172 -83
-184 -118 -329 -92 -379 19 -35 79 -25 154 25 62 41 66 43 66 22 0 -57 61 -78
106 -36 18 18 24 34 24 64 0 64 16 108 72 193 113 174 170 311 149 366 -14 36
-42 35 -85 -4z"/>
<path d="M4105 1283 c-702 -62 -928 -88 -1289 -149 -438 -73 -1048 -213 -1346
-309 -234 -76 -467 -165 -486 -186 -15 -17 -15 -19 -1 -19 38 0 250 46 482
105 255 64 829 185 1216 255 265 48 543 88 968 141 575 70 671 90 671 135 0
27 -89 38 -215 27z"/>
</g>
</svg>
