<svg width="34" height="34" viewBox="0 0 34 34" fill="none" xmlns="http://www.w3.org/2000/svg">
<path fill-rule="evenodd" clip-rule="evenodd" d="M22.4673 13.422C22.4673 18.4176 18.4176 22.4673 13.422 22.4673C8.42646 22.4673 4.37675 18.4176 4.37675 13.422C4.37675 8.42646 8.42646 4.37675 13.422 4.37675C18.4176 4.37675 22.4673 8.42646 22.4673 13.422ZM21.0864 24.442C18.9134 25.9562 16.2714 26.8441 13.422 26.8441C6.00925 26.8441 0 20.8348 0 13.422C0 6.00925 6.00925 0 13.422 0C20.8348 0 26.8441 6.00925 26.8441 13.422C26.8441 16.4055 25.8706 19.1616 24.2241 21.3901L33.2943 30.4603L30.1995 33.5551L21.0864 24.442Z" fill="#A4A3A3"/>
</svg>
